<mxfile host="app.diagrams.net" modified="2022-02-13T18:27:49.965Z" agent="5.0 (Macintosh; Intel Mac OS X 10_15_6) AppleWebKit/537.36 (KHTML, like Gecko) Chrome/98.0.4758.80 Safari/537.36" etag="Vs97MesIDw2k0MWo4Lh4" version="16.5.6" type="github">
  <diagram id="1Bjc22vgshn85FlFiUWT" name="Page-1">
    <mxGraphModel dx="1298" dy="834" grid="1" gridSize="10" guides="1" tooltips="1" connect="1" arrows="1" fold="1" page="1" pageScale="1" pageWidth="1169" pageHeight="1654" math="0" shadow="0">
      <root>
        <mxCell id="0" />
        <mxCell id="1" parent="0" />
        <mxCell id="oH6AIqtN7AquyjuAyir9-9" value="&lt;font color=&quot;#1a1a1a&quot; style=&quot;font-size: 16px&quot;&gt;&lt;b&gt;wework-scrm-ui-backend&lt;/b&gt;&lt;/font&gt;" style="rounded=1;whiteSpace=wrap;html=1;strokeWidth=2;fillWeight=4;hachureGap=8;hachureAngle=45;sketch=1;fillStyle=hachure;fillColor=none;" vertex="1" parent="1">
          <mxGeometry x="475" y="30" width="120" height="60" as="geometry" />
        </mxCell>
        <mxCell id="oH6AIqtN7AquyjuAyir9-10" value="站点 + 权限配置、资源管理" style="endArrow=classic;html=1;rounded=0;" edge="1" parent="1">
          <mxGeometry relative="1" as="geometry">
            <mxPoint x="535" y="100" as="sourcePoint" />
            <mxPoint x="535" y="175" as="targetPoint" />
          </mxGeometry>
        </mxCell>
        <mxCell id="oH6AIqtN7AquyjuAyir9-12" value="&lt;b style=&quot;color: rgb(26 , 26 , 26) ; font-size: 16px&quot;&gt;wework-scrm-ui-pc&lt;/b&gt;" style="rounded=1;whiteSpace=wrap;html=1;strokeWidth=2;fillWeight=4;hachureGap=8;hachureAngle=45;sketch=1;fillColor=none;" vertex="1" parent="1">
          <mxGeometry x="475" y="185" width="120" height="60" as="geometry" />
        </mxCell>
        <mxCell id="oH6AIqtN7AquyjuAyir9-13" value="&lt;font&gt;&lt;b style=&quot;font-size: 16px&quot;&gt;dm-wxwork、&lt;/b&gt;&lt;br&gt;&lt;span style=&quot;font-size: 16px&quot;&gt;&lt;b&gt;dm-subject-ts&lt;/b&gt;&lt;/span&gt;&lt;br&gt;&lt;/font&gt;" style="rounded=1;whiteSpace=wrap;html=1;strokeWidth=2;fillWeight=4;hachureGap=8;hachureAngle=45;sketch=1;fillColor=none;" vertex="1" parent="1">
          <mxGeometry x="190" y="187.5" width="120" height="60" as="geometry" />
        </mxCell>
        <mxCell id="oH6AIqtN7AquyjuAyir9-14" value="&lt;b style=&quot;color: rgb(26 , 26 , 26) ; font-size: 16px&quot;&gt;wework-scrm-ui-h5&lt;/b&gt;" style="rounded=1;whiteSpace=wrap;html=1;strokeWidth=2;fillWeight=4;hachureGap=8;hachureAngle=45;sketch=1;fillColor=none;" vertex="1" parent="1">
          <mxGeometry x="845" y="355" width="120" height="60" as="geometry" />
        </mxCell>
        <mxCell id="oH6AIqtN7AquyjuAyir9-15" value="部分直营相关服务" style="endArrow=classic;html=1;rounded=0;" edge="1" parent="1">
          <mxGeometry relative="1" as="geometry">
            <mxPoint x="320" y="217" as="sourcePoint" />
            <mxPoint x="460" y="217" as="targetPoint" />
          </mxGeometry>
        </mxCell>
        <mxCell id="oH6AIqtN7AquyjuAyir9-17" value="企微相关配置服务" style="endArrow=classic;html=1;rounded=0;" edge="1" parent="1">
          <mxGeometry relative="1" as="geometry">
            <mxPoint x="705" y="385" as="sourcePoint" />
            <mxPoint x="835" y="384.5" as="targetPoint" />
          </mxGeometry>
        </mxCell>
        <mxCell id="oH6AIqtN7AquyjuAyir9-20" value="外呼服务" style="text;html=1;whiteSpace=wrap;verticalAlign=middle;overflow=hidden;rounded=1;align=center;fillColor=none;strokeColor=default;" vertex="1" parent="1">
          <mxGeometry x="385" y="305" width="100" height="30" as="geometry" />
        </mxCell>
        <mxCell id="oH6AIqtN7AquyjuAyir9-23" value="" style="shape=curlyBracket;whiteSpace=wrap;html=1;rounded=1;direction=south;" vertex="1" parent="1">
          <mxGeometry x="435" y="255" width="200" height="40" as="geometry" />
        </mxCell>
        <mxCell id="oH6AIqtN7AquyjuAyir9-28" value="金牌话术、同屏助手" style="text;html=1;whiteSpace=wrap;verticalAlign=middle;overflow=hidden;strokeColor=default;rounded=1;align=center;" vertex="1" parent="1">
          <mxGeometry x="370" y="345" width="130" height="30" as="geometry" />
        </mxCell>
        <mxCell id="oH6AIqtN7AquyjuAyir9-34" value="外呼服务" style="text;html=1;whiteSpace=wrap;verticalAlign=middle;overflow=hidden;rounded=1;align=center;fillColor=none;strokeColor=default;" vertex="1" parent="1">
          <mxGeometry x="575" y="305" width="120" height="190" as="geometry" />
        </mxCell>
        <mxCell id="oH6AIqtN7AquyjuAyir9-35" value="" style="shape=curlyBracket;whiteSpace=wrap;html=1;rounded=1;direction=east;" vertex="1" parent="1">
          <mxGeometry x="970" y="306.5" width="40" height="160" as="geometry" />
        </mxCell>
        <mxCell id="oH6AIqtN7AquyjuAyir9-36" value="侧边栏" style="text;html=1;whiteSpace=wrap;verticalAlign=middle;overflow=hidden;rounded=1;align=center;fillColor=none;strokeColor=default;" vertex="1" parent="1">
          <mxGeometry x="1020" y="290" width="100" height="30" as="geometry" />
        </mxCell>
        <mxCell id="oH6AIqtN7AquyjuAyir9-37" value="运营工具" style="text;html=1;whiteSpace=wrap;verticalAlign=middle;overflow=hidden;rounded=1;align=center;fillColor=none;strokeColor=default;" vertex="1" parent="1">
          <mxGeometry x="1020" y="346.5" width="100" height="30" as="geometry" />
        </mxCell>
        <mxCell id="oH6AIqtN7AquyjuAyir9-38" value="2C" style="text;html=1;whiteSpace=wrap;verticalAlign=middle;overflow=hidden;rounded=1;align=center;fillColor=none;strokeColor=default;" vertex="1" parent="1">
          <mxGeometry x="1020" y="396.5" width="100" height="30" as="geometry" />
        </mxCell>
        <mxCell id="oH6AIqtN7AquyjuAyir9-39" value="&lt;b&gt;&lt;font style=&quot;font-size: 16px&quot;&gt;wxtech-lighthouse-ui&lt;/font&gt;&lt;/b&gt;" style="rounded=1;whiteSpace=wrap;html=1;strokeWidth=2;fillWeight=4;hachureGap=8;hachureAngle=45;sketch=1;fillColor=none;" vertex="1" parent="1">
          <mxGeometry x="770" y="185" width="120" height="60" as="geometry" />
        </mxCell>
        <mxCell id="oH6AIqtN7AquyjuAyir9-40" value="历史代码兼容&lt;br&gt;全量功能内嵌" style="endArrow=classic;html=1;rounded=0;" edge="1" parent="1">
          <mxGeometry relative="1" as="geometry">
            <mxPoint x="760" y="215" as="sourcePoint" />
            <mxPoint x="605" y="215" as="targetPoint" />
          </mxGeometry>
        </mxCell>
        <mxCell id="oH6AIqtN7AquyjuAyir9-42" value="" style="shape=curlyBracket;whiteSpace=wrap;html=1;rounded=1;direction=south;rotation=90;" vertex="1" parent="1">
          <mxGeometry x="48.52" y="200.24" width="222.96" height="40" as="geometry" />
        </mxCell>
        <mxCell id="oH6AIqtN7AquyjuAyir9-43" value="排班" style="text;html=1;whiteSpace=wrap;verticalAlign=middle;overflow=hidden;rounded=1;align=center;fillColor=none;strokeColor=default;" vertex="1" parent="1">
          <mxGeometry x="30" y="100" width="100" height="30" as="geometry" />
        </mxCell>
        <mxCell id="oH6AIqtN7AquyjuAyir9-44" value="渠道码" style="text;html=1;whiteSpace=wrap;verticalAlign=middle;overflow=hidden;rounded=1;align=center;fillColor=none;strokeColor=default;" vertex="1" parent="1">
          <mxGeometry x="30" y="151.25" width="100" height="30" as="geometry" />
        </mxCell>
        <mxCell id="oH6AIqtN7AquyjuAyir9-45" value="运营活动" style="text;html=1;whiteSpace=wrap;verticalAlign=middle;overflow=hidden;rounded=1;align=center;fillColor=none;strokeColor=default;" vertex="1" parent="1">
          <mxGeometry x="30" y="205" width="100" height="30" as="geometry" />
        </mxCell>
        <mxCell id="oH6AIqtN7AquyjuAyir9-46" value="2C" style="text;html=1;whiteSpace=wrap;verticalAlign=middle;overflow=hidden;rounded=1;align=center;fillColor=none;strokeColor=default;" vertex="1" parent="1">
          <mxGeometry x="30" y="260" width="100" height="30" as="geometry" />
        </mxCell>
        <mxCell id="oH6AIqtN7AquyjuAyir9-47" value="..." style="text;html=1;whiteSpace=wrap;verticalAlign=middle;overflow=hidden;rounded=1;align=center;fillColor=none;strokeColor=default;" vertex="1" parent="1">
          <mxGeometry x="30" y="315" width="100" height="30" as="geometry" />
        </mxCell>
        <mxCell id="oH6AIqtN7AquyjuAyir9-48" value="..." style="text;html=1;whiteSpace=wrap;verticalAlign=middle;overflow=hidden;rounded=1;align=center;fillColor=none;strokeColor=default;" vertex="1" parent="1">
          <mxGeometry x="1020" y="446.5" width="100" height="30" as="geometry" />
        </mxCell>
      </root>
    </mxGraphModel>
  </diagram>
</mxfile>
